<svg xmlns="http://www.w3.org/2000/svg" width="44" height="44" viewBox="0 0 44 44">
  <g id="icon" transform="translate(-296 -539)">
    <circle id="Elipse_1" data-name="Elipse 1" cx="22" cy="22" r="22" transform="translate(296 539)" fill="#2aa8de"/>
    <g id="noun-follow-3668380" transform="translate(305.638 548.278)">
      <g id="Grupo_6" data-name="Grupo 6" transform="translate(0.362 0.252)">
        <path id="Caminho_2" data-name="Caminho 2" d="M11.792,290.9A7.152,7.152,0,0,0,7.674,303.91,11.631,11.631,0,0,0,.362,314.689a1.129,1.129,0,1,0,2.257,0,9.352,9.352,0,0,1,14.273-7.955,1.13,1.13,0,1,0,1.182-1.927,11.6,11.6,0,0,0-2.059-.977A7.152,7.152,0,0,0,11.792,290.9Zm0,2.259a4.9,4.9,0,1,1-4.907,4.907A4.888,4.888,0,0,1,11.792,293.162Zm6.924,19.2v2.257a1.129,1.129,0,0,0,2.257,0v-2.257h2.259a1.13,1.13,0,1,0,0-2.259H20.973v-2.257a1.129,1.129,0,1,0-2.257,0v2.257H16.4a1.13,1.13,0,1,0,.054,2.259Z" transform="translate(-0.362 -290.902)" fill="#fff"/>
      </g>
    </g>
  </g>
</svg>
