<svg xmlns="http://www.w3.org/2000/svg" width="44" height="44" viewBox="0 0 44 44">
  <g id="icon" transform="translate(-296 -539)">
    <circle id="Elipse_1" data-name="Elipse 1" cx="22" cy="22" r="22" transform="translate(296 539)" fill="#2aa8de"/>
    <g id="noun-pencil-6804102" transform="translate(303.138 545.867)">
      <path id="Caminho_1" data-name="Caminho 1" d="M3.514,26.612a.374.374,0,0,0,.109-.016l5.034-1.46a.265.265,0,0,0,.024-.011l.028-.013a.4.4,0,0,0,.115-.076L26.048,7.814a1.9,1.9,0,0,0,0-2.683L24.6,3.687a1.9,1.9,0,0,0-2.683,0L19.982,5.626l-.006,0,0,.006L18.741,6.868a.014.014,0,0,0,0,0s0,0,0,0L4.7,20.91a.383.383,0,0,0-.076.115c0,.01-.009.019-.013.028s-.008.016-.011.024l-1.46,5.034a.391.391,0,0,0,.376.5Zm.9-2.085.794.794-1.119.325Zm.752-2.6,1.307,1.307s.006.011.01.015.01.006.015.01L7.8,24.57l-1.738.5-1.4-1.4.5-1.738ZM19.013,7.7l1.234,1.234L6.76,22.421,5.526,21.187ZM20.253,6.46l3.021,3.021-.687.687L19.566,7.147ZM8.548,24.207,7.314,22.973,20.8,9.488l1.234,1.234ZM22.474,4.24a1.116,1.116,0,0,1,1.576,0l1.444,1.444a1.116,1.116,0,0,1,0,1.576L23.827,8.928,20.806,5.906l1.667-1.667Z" transform="translate(0 0)" fill="#fff" stroke="#fff" stroke-width="1"/>
    </g>
  </g>
</svg>
