<svg xmlns="http://www.w3.org/2000/svg" width="295.253" height="306.828" viewBox="0 0 295.253 306.828">
  <g id="noun-pencil-6804102" transform="translate(-2.862 -8.662)" opacity="0.67">
    <g id="noun-follow-3668380" transform="translate(2.501 8.41)">
      <g id="Grupo_6" data-name="Grupo 6" transform="translate(0.362 0.252)">
        <path id="Caminho_2" data-name="Caminho 2" d="M140.974,290.9c-48.479,0-88.134,39.683-88.134,88.16a87.967,87.967,0,0,0,37.477,71.863C37.693,472.023.366,523.493.366,583.535c-.42,18.927,28.189,18.927,27.769,0a115.044,115.044,0,0,1,175.589-97.869c15.8,9.69,30.336-14.01,14.535-23.7a142.753,142.753,0,0,0-25.328-12.014,87.952,87.952,0,0,0,36.094-70.888c0-48.478-39.574-88.161-88.052-88.161Zm0,27.8a60.311,60.311,0,1,1-60.365,60.366A60.127,60.127,0,0,1,140.974,318.7Zm85.178,236.253v27.77c.4,18.105,27.367,18.105,27.769,0v-27.77h27.8c18.531,0,18.531-27.8,0-27.8h-27.8v-27.77a13.885,13.885,0,1,0-27.769,0v27.77H197.718c-19.2.887-17.866,28.682.664,27.8Z" transform="translate(-0.362 -290.902)" fill="#f0f0f0"/>
      </g>
    </g>
  </g>
</svg>
