<svg xmlns="http://www.w3.org/2000/svg" width="296.279" height="296.217" viewBox="0 0 296.279 296.217">
  <g id="noun-pencil-6804102" transform="translate(-2.584 -2.633)" opacity="0.67">
    <path id="Caminho_1" data-name="Caminho 1" d="M8.053,298.349a4.7,4.7,0,0,0,1.365-.2L72.711,279.8a3.328,3.328,0,0,0,.308-.135,3.136,3.136,0,0,0,.357-.16,4.969,4.969,0,0,0,1.452-.96L291.387,62a23.878,23.878,0,0,0,0-33.731L273.23,10.108a23.878,23.878,0,0,0-33.731,0L215.117,34.49a.355.355,0,0,0-.074.049c-.025.025-.025.049-.049.074L199.506,50.1a.172.172,0,0,0-.062.049c-.025.025-.025.049-.049.062L22.928,226.653a4.812,4.812,0,0,0-.96,1.452c-.049.123-.111.234-.16.357-.037.1-.1.2-.135.308L3.319,292.062a4.913,4.913,0,0,0,4.724,6.286Zm11.293-26.215,9.989,9.989-14.073,4.084Zm9.46-32.635,16.435,16.435c.049.061.074.135.123.184s.123.074.185.123l16.435,16.435-21.848,6.335L22.483,261.359l6.335-21.848ZM202.923,60.572l15.512,15.512L48.869,245.652,33.356,230.14Zm15.6-15.6L256.508,82.96,247.872,91.6,209.886,53.61ZM71.346,268.113,55.833,252.6,225.4,83.045l15.512,15.512Zm175.1-251.054a14.033,14.033,0,0,1,19.818,0l18.157,18.157a14.033,14.033,0,0,1,0,19.818L263.463,76,225.477,38.01l20.962-20.962Z" transform="translate(0 0)" fill="#e9e9e9" stroke="#e9e9e9" stroke-width="1"/>
  </g>
</svg>
